<svg width="606" height="127" viewBox="0 0 606 127" fill="none" xmlns="http://www.w3.org/2000/svg">
<path d="M92.328 32.936C92.328 38.216 91.416 43.352 89.592 48.344C87.864 53.24 85.464 57.608 82.392 61.448C79.32 65.288 75.72 68.408 71.592 70.808C67.56 73.112 63.24 74.264 58.632 74.264C57.48 74.264 56.328 73.976 55.176 73.4C54.024 72.728 52.824 72.008 51.576 71.24L50.856 70.808C50.664 73.112 50.424 75.944 50.136 79.304C49.944 82.568 49.848 86.216 49.848 90.248C49.848 90.92 49.848 91.496 49.848 91.976C49.848 92.456 49.848 92.888 49.848 93.272C49.944 93.656 49.992 94.04 49.992 94.424C49.992 94.808 49.992 95.336 49.992 96.008C49.992 97.064 50.232 98.12 50.712 99.176C51.288 100.232 51.576 100.856 51.576 101.048C51.576 101.912 51 102.392 49.848 102.488C48.696 102.68 47.976 102.776 47.688 102.776C45.192 102.776 43.224 102.392 41.784 101.624C40.44 100.856 39.432 99.224 38.76 96.728C38.088 94.232 37.656 90.632 37.464 85.928C37.368 81.128 37.32 74.792 37.32 66.92C37.32 60.296 37.464 53.912 37.752 47.768C38.04 41.624 38.376 36.056 38.76 31.064C39.24 25.976 39.672 21.608 40.056 17.96C40.536 14.216 40.92 11.432 41.208 9.60799C40.056 9.8 38.52 10.232 36.6 10.904C34.776 11.48 32.808 12.2 30.696 13.064C28.584 13.928 26.424 14.936 24.216 16.088C22.008 17.24 19.992 18.44 18.168 19.688C16.44 20.936 15.048 22.232 13.992 23.576C12.84 24.824 12.264 26.072 12.264 27.32L14.712 35.384C14.712 36.152 14.568 37.16 14.28 38.408C13.992 39.56 13.176 40.136 11.832 40.136C9.912 40.136 8.28 39.8 6.936 39.128C5.496 38.36 4.344 37.448 3.48 36.392C2.52 35.24 1.8 34.04 1.32 32.792C0.84 31.544 0.6 30.392 0.6 29.336C0.6 26.36 1.656 23.576 3.768 20.984C5.784 18.392 8.472 16.04 11.832 13.928C15.096 11.816 18.84 9.89599 23.064 8.16799C27.288 6.43999 31.56 4.99999 35.88 3.848C40.2 2.696 44.328 1.832 48.264 1.256C52.296 0.583994 55.752 0.247993 58.632 0.247993C61.992 0.247993 65.304 0.487992 68.568 0.967992C71.928 1.35199 75.24 2.35999 78.504 3.992C81.96 5.72 84.6 8.12 86.424 11.192C88.344 14.264 89.736 17.336 90.6 20.408C91.464 23.48 91.944 26.216 92.04 28.616C92.232 31.016 92.328 32.456 92.328 32.936ZM82.248 26.744C82.248 22.232 81.192 18.728 79.08 16.232C77.064 13.64 74.52 11.72 71.448 10.472C68.472 9.224 65.304 8.50399 61.944 8.31199C58.584 8.024 55.56 7.88 52.872 7.88C52.296 7.88 51.288 7.976 49.848 8.16799C48.504 8.26399 46.728 8.50399 44.52 8.88799C47.688 9.65599 49.944 10.712 51.288 12.056C52.632 13.4 53.256 14.6 53.16 15.656L51.576 56.408C51.576 59.768 51.864 62.264 52.44 63.896C53.016 65.528 54.648 66.344 57.336 66.344C59.928 66.344 62.664 64.952 65.544 62.168C68.52 59.288 71.208 55.832 73.608 51.8C76.104 47.672 78.168 43.352 79.8 38.84C81.432 34.232 82.248 30.2 82.248 26.744ZM138.902 74.696C138.902 75.368 138.662 77 138.182 79.592C137.798 82.088 137.03 84.776 135.878 87.656C134.822 90.44 133.334 92.936 131.414 95.144C129.59 97.352 127.238 98.456 124.358 98.456C121.286 98.456 118.838 97.352 117.014 95.144C115.19 93.032 113.798 90.488 112.838 87.512C111.878 84.44 111.254 81.272 110.966 78.008C110.678 74.648 110.534 71.864 110.534 69.656C110.534 67.16 110.678 64.664 110.966 62.168C111.254 59.576 111.446 57.032 111.542 54.536C111.542 53.768 111.158 53.288 110.39 53.096C109.622 52.904 108.902 52.808 108.23 52.808C107.078 52.808 106.358 52.952 106.07 53.24C105.782 53.528 105.59 53.864 105.494 54.248L104.918 58.856C104.534 61.928 104.102 64.904 103.622 67.784C103.238 70.568 102.758 73.064 102.182 75.272C101.702 77.384 101.078 79.112 100.31 80.456C99.6379 81.704 98.8219 82.328 97.8619 82.328H97.7179C97.3339 82.328 96.9499 82.232 96.5659 82.04C96.2779 81.848 96.1339 81.368 96.1339 80.6C96.1339 80.216 96.2299 79.64 96.4219 78.872C97.1899 75.512 97.6699 72.728 97.8619 70.52C98.0539 68.312 98.1979 66.344 98.2939 64.616V63.608C98.2939 63.128 98.2939 62.552 98.2939 61.88C98.3899 61.208 98.4379 60.392 98.4379 59.432V55.688C98.4379 54.632 98.4379 53.528 98.4379 52.376C98.4379 51.224 98.3419 49.976 98.1499 48.632L97.7179 40.136C97.7179 39.56 97.9579 39.032 98.4379 38.552C98.9179 38.072 99.5419 37.64 100.31 37.256C101.078 36.872 101.894 36.584 102.758 36.392C103.622 36.2 104.39 36.104 105.062 36.104C106.694 36.104 107.51 37.16 107.51 39.272V39.992L107.366 43.16V44.024C107.366 44.696 107.51 45.128 107.798 45.32C108.086 45.416 108.662 45.56 109.526 45.752H109.958C110.726 45.848 111.974 45.944 113.702 46.04C115.43 46.136 117.158 46.328 118.886 46.616C120.614 46.904 122.102 47.384 123.35 48.056C124.694 48.632 125.366 49.496 125.366 50.648C125.366 51.032 125.27 51.608 125.078 52.376C124.886 53.048 124.646 53.768 124.358 54.536C124.07 55.208 123.83 55.832 123.638 56.408C123.446 56.984 123.35 57.368 123.35 57.56C121.622 64.184 120.758 71.096 120.758 78.296C120.758 78.872 120.806 79.928 120.902 81.464C120.998 83 121.19 84.584 121.478 86.216C121.766 87.848 122.198 89.288 122.774 90.536C123.35 91.784 124.07 92.408 124.934 92.408C126.374 92.408 127.67 91.544 128.822 89.816C129.974 87.992 130.982 85.928 131.846 83.624C132.71 81.224 133.382 78.824 133.862 76.424C134.438 74.024 134.822 72.248 135.014 71.096C135.206 70.04 135.494 69.416 135.878 69.224C136.358 68.936 136.79 68.792 137.174 68.792C138.518 68.792 139.19 69.656 139.19 71.384C139.19 71.576 139.142 72.104 139.046 72.968C139.046 73.736 138.998 74.312 138.902 74.696ZM177.484 72.824C177.484 75.224 177.052 77.912 176.188 80.888C175.324 83.864 173.98 86.648 172.156 89.24C170.332 91.736 167.98 93.848 165.1 95.576C162.316 97.304 158.956 98.168 155.02 98.168C151.276 98.168 148.108 97.496 145.516 96.152C142.924 94.808 140.764 92.984 139.036 90.68C137.404 88.376 136.204 85.688 135.436 82.616C134.764 79.448 134.428 76.136 134.428 72.68C134.428 69.32 134.812 65.624 135.58 61.592C136.348 57.56 137.548 53.816 139.18 50.36C140.812 46.808 142.876 43.88 145.372 41.576C147.868 39.176 150.892 37.976 154.444 37.976C156.172 37.976 157.804 38.36 159.34 39.128C160.876 39.8 162.22 40.712 163.372 41.864C164.524 43.016 165.436 44.36 166.108 45.896C166.78 47.432 167.164 49.016 167.26 50.648L167.404 52.664C167.404 54.968 167.02 57.512 166.252 60.296C165.484 62.984 164.38 65.528 162.94 67.928C161.5 70.232 159.724 72.2 157.612 73.832C155.5 75.368 153.1 76.136 150.412 76.136C149.932 76.136 149.308 76.088 148.54 75.992C147.868 75.896 147.196 75.752 146.524 75.56V79.736C146.524 80.408 146.716 81.368 147.1 82.616C147.58 83.864 148.252 85.112 149.116 86.36C149.98 87.512 151.084 88.568 152.428 89.528C153.868 90.392 155.596 90.824 157.612 90.824C160.396 90.824 162.652 90.296 164.38 89.24C166.204 88.088 167.692 86.648 168.844 84.92C169.996 83.192 170.86 81.272 171.436 79.16C172.108 76.952 172.636 74.84 173.02 72.824C173.308 71.48 173.596 70.568 173.884 70.088C174.172 69.608 174.652 69.368 175.324 69.368C176.764 69.368 177.484 70.184 177.484 71.816V72.824ZM160.492 50.504C160.492 49.736 160.252 48.92 159.772 48.056C159.388 47.192 158.62 46.76 157.468 46.76C155.74 46.76 154.252 47.672 153.004 49.496C151.756 51.32 150.7 53.432 149.836 55.832C149.068 58.136 148.492 60.392 148.108 62.6C147.724 64.712 147.532 66.104 147.532 66.776V67.208C147.532 68.072 147.58 68.792 147.676 69.368C147.868 69.848 148.396 70.088 149.26 70.088H149.98C151.9 70.088 153.532 69.368 154.876 67.928C156.22 66.488 157.276 64.76 158.044 62.744C158.908 60.728 159.532 58.664 159.916 56.552C160.3 54.44 160.492 52.712 160.492 51.368V50.504ZM208.232 86.072C208.232 88.376 207.464 90.152 205.928 91.4C204.392 92.648 202.616 93.56 200.6 94.136C198.68 94.712 196.712 95.048 194.696 95.144C192.776 95.336 191.384 95.432 190.52 95.432C189.176 95.432 187.496 95.288 185.48 95C183.56 94.712 181.64 94.28 179.72 93.704C177.896 93.032 176.312 92.12 174.968 90.968C173.72 89.816 173.096 88.376 173.096 86.648C173.096 85.592 173.48 84.872 174.248 84.488C175.112 84.008 175.928 83.768 176.696 83.768C177.752 83.768 178.76 84.152 179.72 84.92C180.776 85.688 181.832 86.504 182.888 87.368C184.04 88.232 185.288 89.048 186.632 89.816C187.976 90.584 189.512 90.968 191.24 90.968C192.008 90.968 193.016 90.728 194.264 90.248C195.608 89.672 196.28 88.712 196.28 87.368C196.28 86.024 195.704 84.728 194.552 83.48C193.496 82.232 192.104 80.936 190.376 79.592C188.744 78.248 186.968 76.856 185.048 75.416C183.128 73.976 181.304 72.44 179.576 70.808C177.944 69.08 176.552 67.208 175.4 65.192C174.344 63.176 173.816 60.968 173.816 58.568C173.816 55.208 174.872 52.376 176.984 50.072C179.192 47.768 181.736 45.944 184.616 44.6C187.592 43.256 190.616 42.296 193.688 41.72C196.76 41.144 199.16 40.856 200.888 40.856C202.52 40.856 204.152 41.192 205.784 41.864C207.416 42.536 208.232 43.832 208.232 45.752C208.232 46.328 208.088 47.192 207.8 48.344C207.608 49.4 207.224 50.456 206.648 51.512C206.168 52.568 205.496 53.528 204.632 54.392C203.768 55.16 202.664 55.544 201.32 55.544C200.936 55.544 200.552 55.4 200.168 55.112C199.784 54.728 199.352 54.344 198.872 53.96C198.392 53.48 197.864 53.096 197.288 52.808C196.808 52.424 196.232 52.232 195.56 52.232C192.2 52.232 189.848 53.24 188.504 55.256C187.16 57.176 186.488 59.24 186.488 61.448C186.488 63.368 187.592 65.384 189.8 67.496C192.104 69.608 194.6 71.72 197.288 73.832C200.072 75.944 202.568 78.056 204.776 80.168C207.08 82.184 208.232 84.152 208.232 86.072ZM247.045 86.072C247.045 88.376 246.277 90.152 244.741 91.4C243.205 92.648 241.429 93.56 239.413 94.136C237.493 94.712 235.525 95.048 233.509 95.144C231.589 95.336 230.197 95.432 229.333 95.432C227.989 95.432 226.309 95.288 224.293 95C222.373 94.712 220.453 94.28 218.533 93.704C216.709 93.032 215.125 92.12 213.781 90.968C212.533 89.816 211.909 88.376 211.909 86.648C211.909 85.592 212.293 84.872 213.061 84.488C213.925 84.008 214.741 83.768 215.509 83.768C216.565 83.768 217.573 84.152 218.533 84.92C219.589 85.688 220.645 86.504 221.701 87.368C222.853 88.232 224.101 89.048 225.445 89.816C226.789 90.584 228.325 90.968 230.053 90.968C230.821 90.968 231.829 90.728 233.077 90.248C234.421 89.672 235.093 88.712 235.093 87.368C235.093 86.024 234.517 84.728 233.365 83.48C232.309 82.232 230.917 80.936 229.189 79.592C227.557 78.248 225.781 76.856 223.861 75.416C221.941 73.976 220.117 72.44 218.389 70.808C216.757 69.08 215.365 67.208 214.213 65.192C213.157 63.176 212.629 60.968 212.629 58.568C212.629 55.208 213.685 52.376 215.797 50.072C218.005 47.768 220.549 45.944 223.429 44.6C226.405 43.256 229.429 42.296 232.501 41.72C235.573 41.144 237.973 40.856 239.701 40.856C241.333 40.856 242.965 41.192 244.597 41.864C246.229 42.536 247.045 43.832 247.045 45.752C247.045 46.328 246.901 47.192 246.613 48.344C246.421 49.4 246.037 50.456 245.461 51.512C244.981 52.568 244.309 53.528 243.445 54.392C242.581 55.16 241.477 55.544 240.133 55.544C239.749 55.544 239.365 55.4 238.981 55.112C238.597 54.728 238.165 54.344 237.685 53.96C237.205 53.48 236.677 53.096 236.101 52.808C235.621 52.424 235.045 52.232 234.373 52.232C231.013 52.232 228.661 53.24 227.317 55.256C225.973 57.176 225.301 59.24 225.301 61.448C225.301 63.368 226.405 65.384 228.613 67.496C230.917 69.608 233.413 71.72 236.101 73.832C238.885 75.944 241.381 78.056 243.589 80.168C245.893 82.184 247.045 84.152 247.045 86.072ZM344.621 27.464C344.141 25.928 343.373 24.68 342.317 23.72C341.261 22.664 340.013 21.848 338.573 21.272C337.229 20.696 335.837 20.312 334.397 20.12C332.957 19.832 331.613 19.688 330.365 19.688H321.293C319.565 19.688 317.117 19.832 313.949 20.12C310.877 20.408 307.805 21.032 304.733 21.992C301.661 22.856 298.973 24.152 296.669 25.88C294.461 27.512 293.357 29.72 293.357 32.504C293.357 35.576 294.125 38.264 295.661 40.568C297.293 42.776 299.549 44.648 302.429 46.184C305.405 47.624 308.909 48.728 312.941 49.496C317.069 50.168 321.581 50.504 326.477 50.504C326.669 50.504 327.245 50.408 328.205 50.216C329.261 49.928 329.885 49.544 330.077 49.064C331.133 49.736 332.141 51.128 333.101 53.24C334.061 55.352 334.541 57.32 334.541 59.144C334.541 59.912 334.493 60.68 334.397 61.448C334.301 62.216 334.013 62.84 333.533 63.32C330.461 63.224 328.061 63.176 326.333 63.176C324.701 63.08 322.925 63.032 321.005 63.032C318.893 63.032 316.541 63.128 313.949 63.32C311.357 63.416 308.813 63.8 306.317 64.472C303.821 65.144 301.469 66.2 299.261 67.64C297.053 69.08 295.229 71.048 293.789 73.544C293.309 74.312 293.021 75.032 292.925 75.704C292.829 76.28 292.781 76.952 292.781 77.72C293.069 80.6 294.125 82.856 295.949 84.488C297.869 86.12 300.029 87.368 302.429 88.232C304.925 89.096 307.469 89.624 310.061 89.816C312.653 90.008 314.813 90.104 316.541 90.104C318.077 90.104 319.661 90.104 321.293 90.104C323.021 90.008 324.653 89.816 326.189 89.528C327.725 89.24 329.117 88.856 330.365 88.376C331.613 87.8 332.621 87.032 333.389 86.072C335.981 83.096 338.045 81.032 339.581 79.88C341.213 78.632 342.845 78.008 344.477 78.008C346.397 78.008 347.837 78.392 348.797 79.16C349.757 79.832 350.237 80.648 350.237 81.608C350.237 82.376 350.141 83.048 349.949 83.624C349.853 84.2 349.421 84.872 348.653 85.64C346.253 88.328 343.469 90.488 340.301 92.12C337.229 93.656 334.013 94.856 330.653 95.72C327.389 96.584 324.125 97.112 320.861 97.304C317.597 97.592 314.573 97.736 311.789 97.736C310.253 97.736 308.429 97.688 306.317 97.592C304.205 97.496 302.045 97.112 299.837 96.44C297.629 95.768 295.421 94.76 293.213 93.416C291.101 92.072 289.181 90.152 287.453 87.656C286.493 86.312 285.485 84.824 284.429 83.192C283.469 81.56 282.557 79.976 281.693 78.44C280.829 76.808 280.109 75.272 279.533 73.832C279.053 72.296 278.812 71.048 278.812 70.088C279.677 67.112 281.021 64.76 282.845 63.032C284.669 61.304 286.637 59.912 288.749 58.856C290.957 57.704 293.213 56.792 295.517 56.12C297.917 55.448 300.029 54.68 301.853 53.816C298.781 52.472 295.997 50.696 293.501 48.488C291.005 46.28 288.893 43.928 287.165 41.432C285.437 38.936 284.093 36.488 283.133 34.088C282.173 31.592 281.693 29.432 281.693 27.608C281.693 23.864 283.085 20.648 285.869 17.96C288.749 15.176 292.205 12.872 296.237 11.048C300.365 9.22399 304.685 7.87999 309.197 7.016C313.805 6.05599 317.837 5.57599 321.293 5.57599H327.197H327.917C328.397 5.57599 329.117 5.62399 330.077 5.72C331.037 5.72 331.997 5.768 332.957 5.864C334.013 5.864 334.925 5.96 335.693 6.15199C336.557 6.24799 337.037 6.39199 337.133 6.584C337.997 7.448 338.957 8.456 340.013 9.60799C341.069 10.664 342.077 11.864 343.037 13.208C343.997 14.456 344.813 15.8 345.485 17.24C346.253 18.584 346.685 19.928 346.781 21.272C346.781 22.424 346.637 23.528 346.349 24.584C346.061 25.544 345.485 26.504 344.621 27.464ZM384.903 63.032C384.903 63.224 385.047 63.944 385.335 65.192C385.719 66.44 386.199 67.976 386.775 69.8C387.447 71.528 388.215 73.448 389.079 75.56C389.943 77.576 390.903 79.496 391.959 81.32C393.015 83.048 394.119 84.488 395.271 85.64C396.423 86.792 397.623 87.368 398.871 87.368C400.791 87.368 402.375 86.84 403.623 85.784C404.967 84.728 406.071 83.384 406.935 81.752C407.895 80.024 408.615 78.2 409.095 76.28C409.671 74.264 410.103 72.344 410.391 70.52C410.583 69.656 410.823 68.936 411.111 68.36C411.399 67.784 411.783 67.496 412.263 67.496C412.935 67.496 413.463 67.688 413.847 68.072C414.231 68.456 414.471 68.936 414.567 69.512C414.759 70.088 414.855 70.712 414.855 71.384C414.951 72.056 414.999 72.68 414.999 73.256V73.688C414.903 74.648 414.567 76.328 413.991 78.728C413.415 81.032 412.407 83.432 410.967 85.928C409.623 88.328 407.703 90.488 405.207 92.408C402.807 94.232 399.735 95.192 395.991 95.288H395.703C390.711 95.288 386.679 93.704 383.607 90.536C380.535 87.272 377.751 81.992 375.255 74.696C374.967 74.792 374.103 75.992 372.663 78.296C371.223 80.6 369.687 83.24 368.055 86.216C366.423 89.192 364.935 92.12 363.591 95C362.247 97.976 361.575 100.136 361.575 101.48V101.768C361.575 102.152 361.815 102.44 362.295 102.632C362.199 103.112 361.815 103.448 361.143 103.64C360.567 103.928 359.991 104.072 359.415 104.072C359.319 104.072 358.839 104.024 357.975 103.928C357.207 103.832 356.391 103.64 355.527 103.352C354.663 103.064 353.847 102.68 353.079 102.2C352.407 101.816 352.071 101.288 352.071 100.616L371.655 65.048C371.655 64.472 371.463 63.128 371.079 61.016C370.791 58.904 370.311 56.696 369.639 54.392C369.063 52.088 368.295 50.024 367.335 48.2C366.375 46.376 365.271 45.464 364.023 45.464C362.487 45.464 361.191 45.992 360.135 47.048C359.175 48.104 358.359 49.352 357.687 50.792C357.015 52.232 356.487 53.672 356.103 55.112C355.815 56.456 355.575 57.464 355.383 58.136C354.999 59 354.039 60.008 352.503 61.16C351.063 62.216 349.863 62.744 348.903 62.744C347.847 62.744 347.319 62.264 347.319 61.304C347.319 59.096 348.135 56.456 349.767 53.384C351.399 50.312 353.415 47.336 355.815 44.456C358.311 41.576 360.903 39.128 363.591 37.112C366.375 35.096 368.871 34.088 371.079 34.088C373.095 34.088 374.727 34.856 375.975 36.392C377.319 37.832 378.423 39.56 379.287 41.576C380.151 43.592 380.775 45.656 381.159 47.768C381.639 49.88 382.023 51.608 382.311 52.952C382.695 52.568 383.415 51.8 384.471 50.648C385.623 49.4 386.919 47.96 388.359 46.328C389.895 44.6 391.527 42.824 393.255 41C394.983 39.08 396.615 37.352 398.151 35.816C399.783 34.184 401.223 32.888 402.471 31.928C403.719 30.872 404.631 30.344 405.207 30.344C406.647 30.344 408.183 30.872 409.815 31.928C411.543 32.984 412.407 34.424 412.407 36.248C412.407 36.824 412.167 37.112 411.687 37.112C411.399 37.112 411.111 37.016 410.823 36.824C410.631 36.536 410.343 36.392 409.959 36.392C409.383 36.392 408.663 36.632 407.799 37.112C406.935 37.592 405.687 38.696 404.055 40.424C402.903 41.672 401.223 43.496 399.015 45.896C396.903 48.296 394.791 50.744 392.679 53.24C390.567 55.64 388.743 57.8 387.207 59.72C385.671 61.64 384.903 62.744 384.903 63.032ZM451.947 67.352C451.947 71.384 451.563 75.224 450.795 78.872C450.123 82.424 449.067 85.544 447.627 88.232C446.187 90.824 444.363 92.936 442.155 94.568C439.947 96.104 437.403 96.872 434.523 96.872C431.931 96.872 429.723 96.344 427.899 95.288C426.075 94.328 425.163 92.6 425.163 90.104C425.163 89.048 425.499 88.232 426.171 87.656C426.939 87.08 427.611 86.792 428.187 86.792C428.955 86.792 429.483 87.032 429.771 87.512C430.155 87.896 430.491 88.376 430.779 88.952C431.163 89.432 431.547 89.912 431.931 90.392C432.411 90.776 433.131 90.968 434.091 90.968C435.723 90.968 436.971 90.2 437.835 88.664C438.795 87.128 439.515 85.208 439.995 82.904C440.475 80.6 440.763 78.104 440.859 75.416C441.051 72.728 441.147 70.232 441.147 67.928V61.304C441.147 59.96 441.099 58.376 441.003 56.552C440.907 54.632 440.667 52.856 440.283 51.224C439.899 49.496 439.275 48.056 438.411 46.904C437.643 45.656 436.587 45.032 435.243 45.032C433.227 45.032 431.451 46.52 429.915 49.496C428.475 52.376 427.275 56.072 426.315 60.584C425.355 65 424.635 69.944 424.155 75.416C423.771 80.792 423.579 85.976 423.579 90.968V103.784C423.675 105.704 423.771 107.384 423.867 108.824C423.963 110.264 424.059 111.608 424.155 112.856C424.347 114.104 424.539 115.304 424.731 116.456C425.019 117.704 425.355 119.096 425.739 120.632C425.835 120.92 426.171 121.16 426.747 121.352C427.419 121.64 427.755 122.12 427.755 122.792C427.755 123.56 427.467 124.136 426.891 124.52C426.411 125 425.739 125.336 424.875 125.528C424.107 125.816 423.243 125.96 422.283 125.96C421.323 126.056 420.459 126.104 419.691 126.104H417.675C416.523 126.104 415.371 125.912 414.219 125.528C413.067 125.24 412.491 124.376 412.491 122.936V38.552C412.491 36.632 412.299 35.096 411.915 33.944C411.819 33.56 411.723 33.224 411.627 32.936C411.531 32.552 411.435 32.216 411.339 31.928C411.339 31.736 411.579 31.496 412.059 31.208C412.635 30.92 413.259 30.632 413.931 30.344C414.603 30.056 415.227 29.816 415.803 29.624C416.475 29.432 416.859 29.336 416.955 29.336C418.587 29.336 419.835 29.864 420.699 30.92C421.659 31.976 422.139 34.04 422.139 37.112V57.128C422.715 55.784 423.243 54.008 423.723 51.8C424.299 49.592 425.067 47.432 426.027 45.32C427.083 43.112 428.427 41.24 430.059 39.704C431.691 38.072 433.803 37.256 436.395 37.256C439.467 37.256 441.963 38.312 443.883 40.424C445.899 42.44 447.483 44.936 448.635 47.912C449.883 50.792 450.747 53.912 451.227 57.272C451.707 60.536 451.947 63.464 451.947 66.056V67.352ZM497.777 74.696C497.777 75.368 497.537 77 497.057 79.592C496.673 82.088 495.905 84.776 494.753 87.656C493.697 90.44 492.209 92.936 490.289 95.144C488.465 97.352 486.113 98.456 483.233 98.456C480.161 98.456 477.713 97.352 475.889 95.144C474.065 93.032 472.673 90.488 471.713 87.512C470.753 84.44 470.129 81.272 469.841 78.008C469.553 74.648 469.409 71.864 469.409 69.656C469.409 67.16 469.553 64.664 469.841 62.168C470.129 59.576 470.321 57.032 470.417 54.536C470.417 53.768 470.033 53.288 469.265 53.096C468.497 52.904 467.777 52.808 467.105 52.808C465.953 52.808 465.233 52.952 464.945 53.24C464.657 53.528 464.465 53.864 464.369 54.248L463.793 58.856C463.409 61.928 462.977 64.904 462.497 67.784C462.113 70.568 461.633 73.064 461.057 75.272C460.577 77.384 459.953 79.112 459.185 80.456C458.513 81.704 457.697 82.328 456.737 82.328H456.593C456.209 82.328 455.825 82.232 455.441 82.04C455.153 81.848 455.009 81.368 455.009 80.6C455.009 80.216 455.105 79.64 455.297 78.872C456.065 75.512 456.545 72.728 456.737 70.52C456.929 68.312 457.073 66.344 457.169 64.616V63.608C457.169 63.128 457.169 62.552 457.169 61.88C457.265 61.208 457.313 60.392 457.313 59.432V55.688C457.313 54.632 457.313 53.528 457.313 52.376C457.313 51.224 457.217 49.976 457.025 48.632L456.593 40.136C456.593 39.56 456.833 39.032 457.313 38.552C457.793 38.072 458.417 37.64 459.185 37.256C459.953 36.872 460.769 36.584 461.633 36.392C462.497 36.2 463.265 36.104 463.937 36.104C465.569 36.104 466.385 37.16 466.385 39.272V39.992L466.241 43.16V44.024C466.241 44.696 466.385 45.128 466.673 45.32C466.961 45.416 467.537 45.56 468.401 45.752H468.833C469.601 45.848 470.849 45.944 472.577 46.04C474.305 46.136 476.033 46.328 477.761 46.616C479.489 46.904 480.977 47.384 482.225 48.056C483.569 48.632 484.241 49.496 484.241 50.648C484.241 51.032 484.145 51.608 483.953 52.376C483.761 53.048 483.521 53.768 483.233 54.536C482.945 55.208 482.705 55.832 482.513 56.408C482.321 56.984 482.225 57.368 482.225 57.56C480.497 64.184 479.633 71.096 479.633 78.296C479.633 78.872 479.681 79.928 479.777 81.464C479.873 83 480.065 84.584 480.353 86.216C480.641 87.848 481.073 89.288 481.649 90.536C482.225 91.784 482.945 92.408 483.809 92.408C485.249 92.408 486.545 91.544 487.697 89.816C488.849 87.992 489.857 85.928 490.721 83.624C491.585 81.224 492.257 78.824 492.737 76.424C493.313 74.024 493.697 72.248 493.889 71.096C494.081 70.04 494.369 69.416 494.753 69.224C495.233 68.936 495.665 68.792 496.049 68.792C497.393 68.792 498.065 69.656 498.065 71.384C498.065 71.576 498.017 72.104 497.921 72.968C497.921 73.736 497.873 74.312 497.777 74.696ZM536.359 72.824C536.359 75.224 535.927 77.912 535.063 80.888C534.199 83.864 532.855 86.648 531.031 89.24C529.207 91.736 526.855 93.848 523.975 95.576C521.191 97.304 517.831 98.168 513.895 98.168C510.151 98.168 506.983 97.496 504.391 96.152C501.799 94.808 499.639 92.984 497.911 90.68C496.279 88.376 495.079 85.688 494.311 82.616C493.639 79.448 493.303 76.136 493.303 72.68C493.303 69.32 493.687 65.624 494.455 61.592C495.223 57.56 496.423 53.816 498.055 50.36C499.687 46.808 501.751 43.88 504.247 41.576C506.743 39.176 509.767 37.976 513.319 37.976C515.047 37.976 516.679 38.36 518.215 39.128C519.751 39.8 521.095 40.712 522.247 41.864C523.399 43.016 524.311 44.36 524.983 45.896C525.655 47.432 526.039 49.016 526.135 50.648L526.279 52.664C526.279 54.968 525.895 57.512 525.127 60.296C524.359 62.984 523.255 65.528 521.815 67.928C520.375 70.232 518.599 72.2 516.487 73.832C514.375 75.368 511.975 76.136 509.287 76.136C508.807 76.136 508.183 76.088 507.415 75.992C506.743 75.896 506.071 75.752 505.399 75.56V79.736C505.399 80.408 505.591 81.368 505.975 82.616C506.455 83.864 507.127 85.112 507.991 86.36C508.855 87.512 509.959 88.568 511.303 89.528C512.743 90.392 514.471 90.824 516.487 90.824C519.271 90.824 521.527 90.296 523.255 89.24C525.079 88.088 526.567 86.648 527.719 84.92C528.871 83.192 529.735 81.272 530.311 79.16C530.983 76.952 531.511 74.84 531.895 72.824C532.183 71.48 532.471 70.568 532.759 70.088C533.047 69.608 533.527 69.368 534.199 69.368C535.639 69.368 536.359 70.184 536.359 71.816V72.824ZM519.367 50.504C519.367 49.736 519.127 48.92 518.647 48.056C518.263 47.192 517.495 46.76 516.343 46.76C514.615 46.76 513.127 47.672 511.879 49.496C510.631 51.32 509.575 53.432 508.711 55.832C507.943 58.136 507.367 60.392 506.983 62.6C506.599 64.712 506.407 66.104 506.407 66.776V67.208C506.407 68.072 506.455 68.792 506.551 69.368C506.743 69.848 507.271 70.088 508.135 70.088H508.855C510.775 70.088 512.407 69.368 513.751 67.928C515.095 66.488 516.151 64.76 516.919 62.744C517.783 60.728 518.407 58.664 518.791 56.552C519.175 54.44 519.367 52.712 519.367 51.368V50.504ZM567.107 86.072C567.107 88.376 566.339 90.152 564.803 91.4C563.267 92.648 561.491 93.56 559.475 94.136C557.555 94.712 555.587 95.048 553.571 95.144C551.651 95.336 550.259 95.432 549.395 95.432C548.051 95.432 546.371 95.288 544.355 95C542.435 94.712 540.515 94.28 538.595 93.704C536.771 93.032 535.187 92.12 533.843 90.968C532.595 89.816 531.971 88.376 531.971 86.648C531.971 85.592 532.355 84.872 533.123 84.488C533.987 84.008 534.803 83.768 535.571 83.768C536.627 83.768 537.635 84.152 538.595 84.92C539.651 85.688 540.707 86.504 541.763 87.368C542.915 88.232 544.163 89.048 545.507 89.816C546.851 90.584 548.387 90.968 550.115 90.968C550.883 90.968 551.891 90.728 553.139 90.248C554.483 89.672 555.155 88.712 555.155 87.368C555.155 86.024 554.579 84.728 553.427 83.48C552.371 82.232 550.979 80.936 549.251 79.592C547.619 78.248 545.843 76.856 543.923 75.416C542.003 73.976 540.179 72.44 538.451 70.808C536.819 69.08 535.427 67.208 534.275 65.192C533.219 63.176 532.691 60.968 532.691 58.568C532.691 55.208 533.747 52.376 535.859 50.072C538.067 47.768 540.611 45.944 543.491 44.6C546.467 43.256 549.491 42.296 552.563 41.72C555.635 41.144 558.035 40.856 559.763 40.856C561.395 40.856 563.027 41.192 564.659 41.864C566.291 42.536 567.107 43.832 567.107 45.752C567.107 46.328 566.963 47.192 566.675 48.344C566.483 49.4 566.099 50.456 565.523 51.512C565.043 52.568 564.371 53.528 563.507 54.392C562.643 55.16 561.539 55.544 560.195 55.544C559.811 55.544 559.427 55.4 559.043 55.112C558.659 54.728 558.227 54.344 557.747 53.96C557.267 53.48 556.739 53.096 556.163 52.808C555.683 52.424 555.107 52.232 554.435 52.232C551.075 52.232 548.723 53.24 547.379 55.256C546.035 57.176 545.363 59.24 545.363 61.448C545.363 63.368 546.467 65.384 548.675 67.496C550.979 69.608 553.475 71.72 556.163 73.832C558.947 75.944 561.443 78.056 563.651 80.168C565.955 82.184 567.107 84.152 567.107 86.072ZM605.92 86.072C605.92 88.376 605.152 90.152 603.616 91.4C602.08 92.648 600.304 93.56 598.288 94.136C596.368 94.712 594.4 95.048 592.384 95.144C590.464 95.336 589.072 95.432 588.208 95.432C586.864 95.432 585.184 95.288 583.168 95C581.248 94.712 579.328 94.28 577.408 93.704C575.584 93.032 574 92.12 572.656 90.968C571.408 89.816 570.784 88.376 570.784 86.648C570.784 85.592 571.168 84.872 571.936 84.488C572.8 84.008 573.616 83.768 574.384 83.768C575.44 83.768 576.448 84.152 577.408 84.92C578.464 85.688 579.52 86.504 580.576 87.368C581.728 88.232 582.976 89.048 584.32 89.816C585.664 90.584 587.2 90.968 588.928 90.968C589.696 90.968 590.704 90.728 591.952 90.248C593.296 89.672 593.968 88.712 593.968 87.368C593.968 86.024 593.392 84.728 592.24 83.48C591.184 82.232 589.792 80.936 588.064 79.592C586.432 78.248 584.656 76.856 582.736 75.416C580.816 73.976 578.992 72.44 577.264 70.808C575.632 69.08 574.24 67.208 573.088 65.192C572.032 63.176 571.504 60.968 571.504 58.568C571.504 55.208 572.56 52.376 574.672 50.072C576.88 47.768 579.424 45.944 582.304 44.6C585.28 43.256 588.304 42.296 591.376 41.72C594.448 41.144 596.848 40.856 598.576 40.856C600.208 40.856 601.84 41.192 603.472 41.864C605.104 42.536 605.92 43.832 605.92 45.752C605.92 46.328 605.776 47.192 605.488 48.344C605.296 49.4 604.912 50.456 604.336 51.512C603.856 52.568 603.184 53.528 602.32 54.392C601.456 55.16 600.352 55.544 599.008 55.544C598.624 55.544 598.24 55.4 597.856 55.112C597.472 54.728 597.04 54.344 596.56 53.96C596.08 53.48 595.552 53.096 594.976 52.808C594.496 52.424 593.92 52.232 593.248 52.232C589.888 52.232 587.536 53.24 586.192 55.256C584.848 57.176 584.176 59.24 584.176 61.448C584.176 63.368 585.28 65.384 587.488 67.496C589.792 69.608 592.288 71.72 594.976 73.832C597.76 75.944 600.256 78.056 602.464 80.168C604.768 82.184 605.92 84.152 605.92 86.072Z" fill="#1D7A8C"/>
</svg>
